<?xml version="1.0" standalone="no"?>
<!DOCTYPE svg PUBLIC "-//W3C//DTD SVG 20010904//EN"
 "http://www.w3.org/TR/2001/REC-SVG-20010904/DTD/svg10.dtd">
<svg version="1.0" xmlns="http://www.w3.org/2000/svg"
 width="1018.000000pt" height="1018.000000pt" viewBox="0 0 1018.000000 1018.000000"
 preserveAspectRatio="xMidYMid meet">
<metadata>
Created by potrace 1.11, written by Peter Selinger 2001-2013
</metadata>
<g transform="translate(0.000000,1018.000000) scale(0.100000,-0.100000)"
fill="#000000" stroke="none">
<path d="M5107 10168 c-59 -12 -130 -53 -170 -97 -60 -67 -72 -97 -72 -186 0
-95 25 -155 89 -213 l40 -36 1 -155 1 -156 -30 -33 c-17 -18 -41 -43 -53 -56
-13 -13 -23 -28 -23 -35 0 -6 -4 -11 -10 -11 -5 0 -10 -6 -10 -13 0 -7 -8 -22
-17 -33 -10 -11 -19 -26 -21 -34 -2 -8 -9 -18 -15 -22 -7 -4 -8 -8 -4 -8 4 0
2 -10 -5 -22 -7 -13 -13 -25 -13 -28 0 -3 -7 -26 -14 -52 -17 -60 -11 -129 18
-191 22 -48 22 -77 1 -77 -5 0 -10 -5 -10 -10 0 -12 -12 -28 -55 -72 -16 -17
-23 -27 -15 -23 8 5 -1 -9 -20 -31 -19 -21 -41 -48 -50 -59 -8 -10 -35 -40
-60 -65 -24 -25 -44 -47 -45 -50 0 -3 -3 -4 -8 -2 -4 1 -6 -4 -5 -10 2 -7 -3
-12 -10 -10 -6 1 -11 -4 -10 -10 2 -7 -3 -12 -10 -10 -8 1 -11 -2 -8 -6 7 -12
-28 -44 -38 -35 -4 5 -6 1 -4 -7 2 -8 -3 -14 -10 -12 -6 1 -11 -4 -10 -10 2
-7 -3 -12 -10 -10 -8 1 -11 -2 -8 -7 3 -5 -1 -14 -9 -21 -8 -7 -15 -10 -15 -6
0 3 -22 -17 -50 -45 -27 -28 -50 -48 -50 -44 0 4 -13 -8 -30 -26 -16 -19 -30
-30 -30 -26 0 4 -11 -3 -24 -17 -13 -15 -28 -26 -35 -26 -6 0 -11 -5 -11 -10
0 -6 -8 -14 -17 -17 -10 -4 -27 -16 -38 -26 -11 -11 -33 -25 -50 -33 -16 -7
-25 -13 -20 -14 6 0 -6 -10 -25 -21 -19 -12 -37 -21 -39 -20 -2 2 -7 -1 -10
-6 -12 -18 -99 -72 -105 -66 -3 4 -6 1 -6 -5 0 -7 -5 -12 -11 -12 -6 0 -17 -7
-26 -15 -8 -8 -19 -13 -24 -10 -5 4 -9 2 -9 -2 0 -11 -60 -47 -60 -36 0 4 -4
3 -8 -3 -10 -16 -249 -134 -256 -126 -3 3 -6 0 -6 -7 0 -7 -4 -10 -9 -6 -5 3
-12 1 -16 -5 -4 -6 -11 -8 -16 -5 -5 4 -9 2 -9 -4 0 -9 -28 -23 -40 -20 -3 1
-23 -8 -45 -20 -22 -11 -43 -21 -48 -21 -4 0 -29 -10 -55 -21 -25 -12 -51 -22
-57 -24 -5 -1 -19 -6 -30 -10 -52 -21 -121 -47 -130 -50 -5 -1 -17 -4 -25 -8
-25 -9 -55 -20 -60 -22 -17 -8 -50 -17 -56 -15 -4 1 -10 -2 -13 -7 -3 -5 -72
-35 -153 -67 -177 -70 -275 -126 -346 -198 -107 -107 -134 -193 -90 -289 31
-66 135 -185 214 -244 100 -75 308 -168 505 -226 l76 -22 12 -49 c6 -27 11
-130 11 -228 l0 -179 -30 -48 c-36 -59 -60 -148 -60 -223 l0 -56 -257 -74
c-914 -259 -1448 -509 -1549 -725 -28 -60 -30 -85 -7 -133 33 -70 99 -120 258
-197 163 -79 294 -128 480 -180 l120 -33 3 -195 2 -195 -35 -12 c-50 -17 -92
-55 -106 -98 -7 -20 -12 -74 -11 -118 l2 -81 -168 -48 c-466 -132 -870 -286
-1050 -401 -120 -77 -193 -173 -173 -226 38 -99 280 -204 647 -279 l160 -33
-1 -684 0 -683 -50 3 -50 3 -3 73 -3 72 -34 0 -35 0 0 -75 0 -75 -170 0 -170
0 0 75 0 75 -35 0 -34 0 -3 -72 -3 -73 -157 -3 -158 -3 0 76 0 75 -35 0 -35 0
0 -75 0 -75 -160 0 c-100 0 -160 -4 -160 -10 0 -12 2 -12 176 -12 l141 0 -1
-80 -1 -81 -157 0 -158 1 0 -494 0 -494 5091 0 5092 0 -5 655 c-3 360 -6 657
-9 659 -2 2 -17 6 -34 8 l-30 3 -3 -77 -3 -78 -169 0 -170 0 0 74 c0 69 -2 74
-23 78 -42 8 -47 0 -47 -78 l0 -74 -160 0 -160 0 0 74 c0 70 -1 74 -24 78 -41
8 -48 -4 -47 -81 l0 -71 -62 0 -62 0 3 675 2 675 23 4 c12 3 60 12 107 21 133
25 382 92 469 125 85 33 196 99 223 133 36 45 13 117 -56 181 -110 101 -412
254 -770 388 -45 17 -184 66 -311 108 -224 76 -230 79 -233 107 -5 61 -25 149
-39 178 -27 53 -55 75 -125 96 l-69 20 3 156 3 156 145 38 c267 69 419 130
589 233 132 79 171 126 171 202 0 192 -456 452 -1290 736 -153 52 -591 188
-605 188 -3 0 -4 17 -1 37 11 102 -35 247 -95 297 l-29 25 0 174 0 175 83 21
c333 88 591 201 705 311 66 63 149 167 173 218 58 119 18 239 -115 342 -63 48
-187 110 -281 140 -84 27 -403 145 -460 170 -22 9 -92 39 -155 66 -154 65
-475 225 -630 314 -397 229 -777 524 -996 773 l-51 58 25 61 c20 52 24 74 20
132 -3 39 -10 80 -16 91 -20 38 -46 100 -44 107 1 3 -5 12 -13 18 -8 7 -15 19
-15 27 0 7 -7 16 -15 19 -8 4 -15 12 -15 20 0 8 -5 14 -12 14 -6 0 -8 3 -5 7
4 3 -5 17 -19 30 -14 12 -22 23 -19 23 4 0 -13 20 -37 44 l-44 43 1 139 c0
110 3 144 16 161 9 13 18 20 21 17 7 -6 68 70 68 85 0 6 5 11 11 11 5 0 8 4 4
9 -3 5 -1 12 4 16 11 6 12 15 13 109 1 45 -3 71 -11 74 -6 2 -9 7 -6 12 3 5 0
14 -7 22 -7 7 -14 19 -16 27 -1 7 -19 29 -38 50 -20 20 -33 29 -29 21 4 -8 -2
-5 -12 7 -41 50 -174 81 -266 61z m-4407 -9098 c0 -54 -4 -79 -12 -82 -11 -3
-252 -2 -280 1 -10 1 -10 145 -1 155 4 3 71 6 150 5 l143 -2 0 -77z m416 -2
l-1 -80 -163 -2 c-148 -1 -162 1 -163 17 -1 22 -1 113 0 131 1 11 33 14 164
14 l164 1 -1 -81z m179 -3 l0 -84 -53 0 -52 1 2 84 2 84 50 0 51 0 0 -85z
m8004 0 l0 -85 -62 0 -62 0 0 85 0 85 62 0 62 0 0 -85z m383 -1 l3 -81 -152 0
c-104 0 -153 3 -154 11 -4 31 -5 132 -2 141 2 7 58 11 153 11 l149 0 3 -82z
m403 74 c4 -3 7 -40 8 -81 l2 -75 -165 2 -165 1 -2 80 -2 80 159 0 c88 -1 162
-4 165 -7z"/>
</g>
</svg>
